<svg xmlns="http://www.w3.org/2000/svg" viewBox="0 0 651.31 71.6"><defs><style>.cls-1{fill:#fff;}</style></defs><g id="Layer_2" data-name="Layer 2"><g id="Layer_1-2" data-name="Layer 1"><path class="cls-1" d="M23.74,2.91,23.61,21c0,7.51-4.46,10.42-10.46,10.42C8,31.38,1.41,29.09,1.41,21.27V2.91A2.23,2.23,0,0,0,0,.93H8.47a2.2,2.2,0,0,0-1.36,2v18.5c0,3.09,1.06,7.45,6.79,7.45,5.25,0,7.15-3.44,7.15-7.81L21,2.91a2.11,2.11,0,0,0-1.19-2h5.12a2.1,2.1,0,0,0-1.15,2"/><path class="cls-1" d="M35.7,31.38a18.72,18.72,0,0,1-8.47-2.12L27,21.8c.84,3.14,3.48,7.29,8.07,7.29,4.37,0,5.7-3.14,5.7-5.3,0-4.24-3.84-4.81-7.86-7s-5.83-4.64-5.83-8c0-6,5.61-8.39,9.63-8.39a14.22,14.22,0,0,1,6.66,1.63l.22,6.54C43,6.27,40.47,2.74,36.23,2.74c-3.35,0-4.68,2.34-4.68,4.23,0,2.7,1.9,3.71,6.05,5.61S46,16,46,22.11c0,5.52-4.85,9.27-10.28,9.27"/><path class="cls-1" d="M60.24,30.94H48.9A2.2,2.2,0,0,0,50,29v-26a2.09,2.09,0,0,0-1.14-2H60.64c14.52,0,17.43,10.28,17.43,14.56,0,7.68-5.91,15.45-17.83,15.45M59.71,3.13c-1.06,0-3.4,0-4.06.09V28.64h3.53c10,0,12.76-6.7,12.76-13.15,0-5.29-3.09-12.36-12.23-12.36"/><path class="cls-1" d="M95.23,30.94c1.15-.62,1.37-1.24,1.06-2.16-.14-.44-1.28-3.14-2.52-6.14H83a61.22,61.22,0,0,0-2.47,6.09c-.4,1.06-.18,1.68,1,2.21H75.41a5.18,5.18,0,0,0,2.07-2.16C78.32,27.1,89.93,0,89.93,0s11.74,27.1,12.54,28.78a3.9,3.9,0,0,0,2.2,2.16Zm-7-21.41s-3,7.51-4.41,10.82h8.92c-2.08-4.9-4.51-10.82-4.51-10.82"/><path class="cls-1" d="M103.35,35.18S39.12,33.59,1.08,53.86c0,0,40.32-16,102.27-14.35Z"/><path class="cls-1" d="M1.08,35.18s21.64.23,35.08,5.24c0,0-27.56-2.28-35.08-1.14Z"/><path class="cls-1" d="M1.08,42.24s15.49-.68,24.83.23c0,0-22.55,2.73-24.83,3.87Z"/><path class="cls-1" d="M92.7,42.94h-.33C73.7,43.3,34.53,45.56,1.1,57.37V71.6l102.26,0V42.94s-4-.13-10.66,0"/><path class="cls-1" d="M131.29,48.22h2.9V61.76a12.28,12.28,0,0,0,.42,3.47,6.12,6.12,0,0,0,1.14,2.24,4.08,4.08,0,0,0,1.7,1.2,5.8,5.8,0,0,0,2.1.37,5.88,5.88,0,0,0,2.13-.37,4.14,4.14,0,0,0,1.72-1.2,6,6,0,0,0,1.15-2.24,12.28,12.28,0,0,0,.42-3.47V48.22h2.8V61.69a14.87,14.87,0,0,1-.63,4.66,8.07,8.07,0,0,1-1.73,3.06,6.26,6.26,0,0,1-2.61,1.68,10,10,0,0,1-3.25.51,10.19,10.19,0,0,1-3.27-.51,6.32,6.32,0,0,1-2.63-1.68,8.21,8.21,0,0,1-1.73-3.06,14.87,14.87,0,0,1-.63-4.66Z"/><path class="cls-1" d="M152.5,69.43a2.19,2.19,0,0,1,.61-1.63,2,2,0,0,1,1.49-.61,2,2,0,0,1,1.45.61,2.19,2.19,0,0,1,.61,1.63,2.11,2.11,0,0,1-.61,1.56,2,2,0,0,1-1.45.61,2.07,2.07,0,0,1-1.49-.61A2.11,2.11,0,0,1,152.5,69.43Z"/><path class="cls-1" d="M162.12,66.17A9.4,9.4,0,0,0,165,68.25a7.91,7.91,0,0,0,3.45.79A5.4,5.4,0,0,0,172,68a3.33,3.33,0,0,0,1.26-2.71,3.5,3.5,0,0,0-.29-1.49,3.22,3.22,0,0,0-.81-1.05,6.17,6.17,0,0,0-1.21-.79c-.46-.23-1-.48-1.5-.73l-3.29-1.44A14.28,14.28,0,0,1,164.5,59a6.4,6.4,0,0,1-1.5-1.19,5.69,5.69,0,0,1-1.09-1.66,5.49,5.49,0,0,1-.42-2.22,5.37,5.37,0,0,1,.55-2.42,6,6,0,0,1,1.5-1.94,7,7,0,0,1,2.28-1.28,8.79,8.79,0,0,1,2.88-.45,9.29,9.29,0,0,1,3.82.78,9.53,9.53,0,0,1,3,2.05l-1.57,1.89a8.46,8.46,0,0,0-2.33-1.59,6.84,6.84,0,0,0-2.89-.58,5,5,0,0,0-3.09.89,2.92,2.92,0,0,0-1.18,2.47,2.74,2.74,0,0,0,.34,1.42,3.58,3.58,0,0,0,.89,1,7.16,7.16,0,0,0,1.22.76c.45.23.9.43,1.37.62l3.25,1.4a13.57,13.57,0,0,1,1.86,1,6.6,6.6,0,0,1,1.5,1.26,5.43,5.43,0,0,1,1,1.68,6.08,6.08,0,0,1,.37,2.22,6,6,0,0,1-2.1,4.64,7.52,7.52,0,0,1-2.45,1.4,9.7,9.7,0,0,1-3.26.51,11.11,11.11,0,0,1-4.48-.91,11.25,11.25,0,0,1-3.57-2.49Z"/><path class="cls-1" d="M179.83,69.43a2.2,2.2,0,0,1,.62-1.63,2.08,2.08,0,0,1,2.94,0,2.23,2.23,0,0,1,.61,1.63,2.15,2.15,0,0,1-.61,1.56,2.08,2.08,0,0,1-2.94,0A2.12,2.12,0,0,1,179.83,69.43Z"/><path class="cls-1" d="M196.42,48.22h5.74q5.33,0,8.09,2.94T213,59.59a15.73,15.73,0,0,1-.7,4.89,9.77,9.77,0,0,1-2.06,3.64,8.89,8.89,0,0,1-3.36,2.27,12.54,12.54,0,0,1-4.59.79h-5.88ZM202,68.8q4,0,6-2.42a10.32,10.32,0,0,0,2-6.79q0-4.37-2-6.68t-6-2.31h-2.62V68.8Z"/><path class="cls-1" d="M217.91,48.22h13.23v2.45H220.82v7.21h8.71v2.48h-8.71v8.33h10.67v2.49H217.91Z"/><path class="cls-1" d="M236.32,48.22h7a15.53,15.53,0,0,1,3.46.35,7.26,7.26,0,0,1,2.68,1.13,5.27,5.27,0,0,1,1.72,2.09,8.52,8.52,0,0,1,0,6.33,5.91,5.91,0,0,1-1.74,2.21,7.66,7.66,0,0,1-2.67,1.31,12.82,12.82,0,0,1-3.45.44h-4.13v9.1h-2.91ZM243,59.7a7.19,7.19,0,0,0,4.46-1.14A4.27,4.27,0,0,0,248.92,55a3.8,3.8,0,0,0-1.47-3.44,8.12,8.12,0,0,0-4.44-1h-3.78V59.7Z"/><path class="cls-1" d="M265.2,64.18h-8.37l-2.2,7h-3l7.77-23h3.29l7.77,23h-3.11Zm-.74-2.35-1.08-3.5c-.42-1.28-.82-2.56-1.19-3.83s-.75-2.57-1.12-3.9h-.14c-.35,1.33-.71,2.63-1.09,3.9s-.77,2.55-1.19,3.83l-1.08,3.5Z"/><path class="cls-1" d="M286.3,71.18l-5.53-9.7h-4.16v9.7H273.7v-23h7.18a15.07,15.07,0,0,1,3.24.33,6.88,6.88,0,0,1,2.55,1.1,5.22,5.22,0,0,1,1.66,2,6.78,6.78,0,0,1,.6,3,6.34,6.34,0,0,1-1.4,4.3,7.14,7.14,0,0,1-3.75,2.21l5.81,10ZM276.61,59.1h3.85a6.66,6.66,0,0,0,4.13-1.1A4,4,0,0,0,286,54.66a3.49,3.49,0,0,0-1.43-3.19,7.83,7.83,0,0,0-4.13-.91h-3.85Z"/><path class="cls-1" d="M298.06,50.67h-6.93V48.22h16.8v2.45H301V71.18h-2.94Z"/><path class="cls-1" d="M312,48.22h3.43l4.44,12.32,1.68,4.69h.14l1.61-4.69,4.41-12.32h3.43v23h-2.76V58.54c0-1,0-2.16.12-3.39s.17-2.37.26-3.4h-.14l-1.85,5.11-4.41,12h-1.65l-4.44-12-1.82-5.11h-.14c.07,1,.15,2.16.24,3.4s.14,2.37.14,3.39V71.18H312Z"/><path class="cls-1" d="M337.44,48.22h13.23v2.45H340.34v7.21h8.72v2.48h-8.72v8.33H351v2.49H337.44Z"/><path class="cls-1" d="M355.85,48.22h3l8.29,14.42,2.49,4.76h.14c-.07-1.17-.15-2.38-.23-3.62s-.12-2.48-.12-3.7V48.22h2.76v23h-3l-8.33-14.46L358.37,52h-.14c.09,1.16.18,2.35.26,3.55s.12,2.41.12,3.62v12h-2.76Z"/><path class="cls-1" d="M383.22,50.67h-6.93V48.22h16.8v2.45h-6.93V71.18h-2.94Z"/><path class="cls-1" d="M412.69,71.6a9.34,9.34,0,0,1-4-.84,8.79,8.79,0,0,1-3.09-2.4,11.19,11.19,0,0,1-2-3.78,16.43,16.43,0,0,1-.71-5,16.12,16.12,0,0,1,.71-5,10.85,10.85,0,0,1,2-3.71,8.6,8.6,0,0,1,3.09-2.33,9.79,9.79,0,0,1,4-.8,9.43,9.43,0,0,1,4,.82A9,9,0,0,1,419.77,51a10.63,10.63,0,0,1,2,3.71,15.71,15.71,0,0,1,.72,4.92,16.12,16.12,0,0,1-.72,5,10.87,10.87,0,0,1-2,3.78,9,9,0,0,1-3.11,2.4A9.29,9.29,0,0,1,412.69,71.6Zm0-2.56a5.85,5.85,0,0,0,2.78-.66,6.24,6.24,0,0,0,2.13-1.91,9.44,9.44,0,0,0,1.39-3,14.54,14.54,0,0,0,.49-3.9,14.32,14.32,0,0,0-.49-3.85,8.79,8.79,0,0,0-1.39-2.9A6.13,6.13,0,0,0,415.47,51a6.29,6.29,0,0,0-5.57,0,6.22,6.22,0,0,0-2.13,1.84,8.58,8.58,0,0,0-1.38,2.9,13.93,13.93,0,0,0-.49,3.85,14.15,14.15,0,0,0,.49,3.9,9.21,9.21,0,0,0,1.38,3,6.33,6.33,0,0,0,2.13,1.91A5.86,5.86,0,0,0,412.69,69Z"/><path class="cls-1" d="M427.42,48.22h13.23v2.45H430.33v7.77h8.75v2.45h-8.75V71.18h-2.91Z"/><path class="cls-1" d="M462.21,64.18h-8.36l-2.21,7h-3l7.77-23h3.29l7.77,23h-3.12Zm-.73-2.35-1.09-3.5c-.42-1.28-.82-2.56-1.19-3.83s-.75-2.57-1.12-3.9h-.14q-.53,2-1.08,3.9c-.38,1.27-.77,2.55-1.19,3.83l-1.09,3.5Z"/><path class="cls-1" d="M469,59.7a14.81,14.81,0,0,1,.78-5A10.89,10.89,0,0,1,472,51a9.72,9.72,0,0,1,3.34-2.36,10.6,10.6,0,0,1,4.23-.82,8.11,8.11,0,0,1,4,.89,10.94,10.94,0,0,1,2.6,1.94l-1.64,1.86a8,8,0,0,0-2-1.53,6.16,6.16,0,0,0-2.89-.61,7.42,7.42,0,0,0-3.15.65,6.53,6.53,0,0,0-2.38,1.86,8.69,8.69,0,0,0-1.52,2.92,12.75,12.75,0,0,0-.54,3.85,13.86,13.86,0,0,0,.5,3.9,8.74,8.74,0,0,0,1.47,3,6.66,6.66,0,0,0,2.38,1.89,7.71,7.71,0,0,0,3.28.66,7.14,7.14,0,0,0,2.32-.37,5,5,0,0,0,1.81-1v-6h-4.87V59.28h7.53v9.66a8.8,8.8,0,0,1-3,1.91,10.92,10.92,0,0,1-4.15.75,10.43,10.43,0,0,1-4.16-.81,8.92,8.92,0,0,1-3.26-2.33,10.74,10.74,0,0,1-2.13-3.74A15.12,15.12,0,0,1,469,59.7Z"/><path class="cls-1" d="M504.52,71.18,499,61.48h-4.16v9.7h-2.9v-23h7.17a14.94,14.94,0,0,1,3.24.33,6.88,6.88,0,0,1,2.55,1.1,5.34,5.34,0,0,1,1.67,2,6.93,6.93,0,0,1,.59,3,6.34,6.34,0,0,1-1.4,4.3A7.11,7.11,0,0,1,502,61.17l5.8,10ZM494.83,59.1h3.85a6.64,6.64,0,0,0,4.13-1.1,3.93,3.93,0,0,0,1.43-3.34,3.47,3.47,0,0,0-1.43-3.19,7.81,7.81,0,0,0-4.13-.91h-3.85Z"/><path class="cls-1" d="M512.22,48.22h2.91v23h-2.91Z"/><path class="cls-1" d="M520.06,59.7a15.07,15.07,0,0,1,.77-5A11.25,11.25,0,0,1,523,51a9.34,9.34,0,0,1,3.24-2.36,10,10,0,0,1,4.07-.82,7.5,7.5,0,0,1,3.68.86,9.87,9.87,0,0,1,2.59,2l-1.65,1.86a7.27,7.27,0,0,0-2-1.56,5.38,5.38,0,0,0-2.57-.58,6.75,6.75,0,0,0-3,.65,6.43,6.43,0,0,0-2.27,1.86,8.8,8.8,0,0,0-1.47,2.92,13.08,13.08,0,0,0-.53,3.85,13.85,13.85,0,0,0,.51,3.9,9.26,9.26,0,0,0,1.42,3A6.18,6.18,0,0,0,530.18,69a6.14,6.14,0,0,0,2.92-.66,9.09,9.09,0,0,0,2.36-1.89l1.65,1.78A10.19,10.19,0,0,1,534,70.72a8.41,8.41,0,0,1-3.92.88,9.84,9.84,0,0,1-4-.81,8.89,8.89,0,0,1-3.18-2.33,10.69,10.69,0,0,1-2.1-3.74A15.39,15.39,0,0,1,520.06,59.7Z"/><path class="cls-1" d="M540.75,48.22h2.9V61.76a12.28,12.28,0,0,0,.42,3.47,6.12,6.12,0,0,0,1.14,2.24,4.08,4.08,0,0,0,1.7,1.2A5.8,5.8,0,0,0,549,69a5.88,5.88,0,0,0,2.13-.37,4.14,4.14,0,0,0,1.72-1.2A6,6,0,0,0,554,65.23a12.28,12.28,0,0,0,.42-3.47V48.22h2.8V61.69a14.87,14.87,0,0,1-.63,4.66,8.07,8.07,0,0,1-1.73,3.06,6.26,6.26,0,0,1-2.61,1.68,10,10,0,0,1-3.25.51,10.19,10.19,0,0,1-3.27-.51,6.32,6.32,0,0,1-2.63-1.68,8.21,8.21,0,0,1-1.73-3.06,14.87,14.87,0,0,1-.63-4.66Z"/><path class="cls-1" d="M563.39,48.22h2.91V68.69h10v2.49h-13Z"/><path class="cls-1" d="M580.93,50.67H574V48.22h16.8v2.45h-6.93V71.18h-2.94Z"/><path class="cls-1" d="M594.79,48.22h2.9V61.76a12.28,12.28,0,0,0,.42,3.47,6.12,6.12,0,0,0,1.14,2.24,4.08,4.08,0,0,0,1.7,1.2,5.8,5.8,0,0,0,2.1.37,5.88,5.88,0,0,0,2.13-.37,4.14,4.14,0,0,0,1.72-1.2,6,6,0,0,0,1.15-2.24,12.28,12.28,0,0,0,.42-3.47V48.22h2.8V61.69a14.87,14.87,0,0,1-.63,4.66,8.07,8.07,0,0,1-1.73,3.06,6.26,6.26,0,0,1-2.61,1.68,10,10,0,0,1-3.25.51,10.19,10.19,0,0,1-3.27-.51,6.32,6.32,0,0,1-2.63-1.68,8.21,8.21,0,0,1-1.73-3.06,14.87,14.87,0,0,1-.63-4.66Z"/><path class="cls-1" d="M630,71.18l-5.53-9.7h-4.16v9.7h-2.91v-23h7.18a15.07,15.07,0,0,1,3.24.33,6.88,6.88,0,0,1,2.55,1.1,5.22,5.22,0,0,1,1.66,2,6.78,6.78,0,0,1,.6,3,6.34,6.34,0,0,1-1.4,4.3,7.14,7.14,0,0,1-3.75,2.21l5.81,10ZM620.34,59.1h3.85a6.66,6.66,0,0,0,4.13-1.1,4,4,0,0,0,1.43-3.34,3.49,3.49,0,0,0-1.43-3.19,7.83,7.83,0,0,0-4.13-.91h-3.85Z"/><path class="cls-1" d="M637.73,48.22H651v2.45H640.64v7.21h8.71v2.48h-8.71v8.33h10.67v2.49H637.73Z"/></g></g></svg>