<?xml version="1.0" encoding="UTF-8"?><svg xmlns="http://www.w3.org/2000/svg" viewBox="0 0 362 115.07"><defs><style>.d{fill:#004785;}.e{fill:#005941;}</style></defs><g id="a"/><g id="b"><g id="c"><g><g><path class="d" d="M152.41,2.91l-.13,18.05c0,7.5-4.46,10.42-10.46,10.42-5.16,0-11.74-2.3-11.74-10.11V2.91c0-1.02-.71-1.63-1.41-1.99h8.47c-.71,.35-1.37,.97-1.37,1.99V21.41c0,3.09,1.06,7.46,6.8,7.46,5.25,0,7.15-3.44,7.15-7.81l-.09-18.14c0-1.02-.53-1.63-1.19-1.99h5.12c-.66,.35-1.15,.97-1.15,1.99"/><path class="d" d="M164.36,31.38c-4.02,0-6.93-1.37-8.47-2.12l-.22-7.46c.84,3.13,3.49,7.28,8.08,7.28s5.69-3.13,5.69-5.3c0-4.24-3.84-4.81-7.86-6.97-4.06-2.25-5.83-4.63-5.83-7.99,0-6,5.61-8.39,9.62-8.39,1.5,0,4.41,.31,6.67,1.63l.22,6.53c-.62-2.34-3.13-5.87-7.37-5.87-3.35,0-4.68,2.34-4.68,4.24,0,2.69,1.9,3.71,6.05,5.61,4.1,1.94,8.39,3.4,8.39,9.53,0,5.52-4.85,9.27-10.28,9.27"/><path class="d" d="M188.9,30.94h-11.34c.66-.4,1.15-1.02,1.15-1.99V2.91c0-1.02-.48-1.63-1.15-1.99h11.74c14.52,0,17.43,10.28,17.43,14.56,0,7.68-5.91,15.45-17.83,15.45m-.53-27.81c-1.06,0-3.4,0-4.06,.09V28.64h3.53c9.98,0,12.76-6.71,12.76-13.15,0-5.3-3.09-12.36-12.23-12.36"/><path class="d" d="M223.89,30.94c1.15-.62,1.37-1.24,1.06-2.16-.13-.44-1.28-3.13-2.52-6.14h-10.81c-1.32,3-2.38,5.61-2.47,6.09-.4,1.06-.18,1.68,1.02,2.21h-6.09c1.24-.84,1.63-1.32,2.07-2.16,.84-1.68,12.45-28.78,12.45-28.78,0,0,11.74,27.1,12.54,28.78,.44,.93,.75,1.41,2.21,2.16h-9.45Zm-6.97-21.41s-3,7.5-4.41,10.81h8.92c-2.07-4.9-4.5-10.81-4.5-10.81"/><path class="e" d="M232.01,35.18s-64.23-1.59-102.26,18.68c0,0,40.31-15.94,102.26-14.35v-4.33Z"/><path class="e" d="M129.75,35.18s21.64,.23,35.07,5.24c0,0-27.56-2.28-35.07-1.14v-4.1Z"/><path class="e" d="M129.75,42.24s15.49-.68,24.83,.23c0,0-22.55,2.73-24.83,3.87v-4.1Z"/><path class="e" d="M221.37,42.94h-.33c-18.68,.36-57.84,2.62-91.27,14.43v14.23l102.26-.02v-28.64s-3.97-.12-10.66,0"/></g><g><path d="M0,98.79H2.02v9.43c0,.96,.1,1.76,.29,2.41,.19,.65,.46,1.17,.79,1.56,.33,.39,.73,.67,1.18,.84,.45,.17,.94,.26,1.46,.26s1.03-.09,1.49-.26c.45-.17,.85-.45,1.19-.84,.34-.39,.61-.91,.8-1.56,.19-.65,.29-1.45,.29-2.41v-9.43h1.95v9.38c0,1.28-.15,2.36-.44,3.24s-.69,1.59-1.21,2.13c-.51,.54-1.12,.93-1.82,1.17-.7,.24-1.45,.35-2.27,.35s-1.57-.12-2.28-.35c-.71-.24-1.32-.62-1.83-1.17-.51-.54-.91-1.25-1.21-2.13-.29-.88-.44-1.96-.44-3.24v-9.38Z"/><path d="M14.76,113.55c0-.47,.14-.85,.43-1.13,.28-.28,.63-.43,1.04-.43s.73,.14,1.01,.43c.28,.28,.43,.66,.43,1.13,0,.44-.14,.8-.43,1.08-.28,.28-.62,.43-1.01,.43s-.75-.14-1.04-.43c-.28-.28-.43-.65-.43-1.08Z"/><path d="M21.46,111.29c.57,.6,1.24,1.08,2.01,1.45,.77,.37,1.57,.55,2.4,.55,1.06,0,1.88-.24,2.46-.72,.58-.48,.88-1.11,.88-1.89,0-.41-.07-.75-.21-1.04-.14-.28-.33-.53-.56-.73-.24-.2-.52-.39-.84-.55-.33-.16-.67-.33-1.05-.51l-2.29-1c-.37-.16-.76-.36-1.15-.58-.39-.23-.74-.5-1.05-.83-.31-.32-.56-.71-.76-1.16-.19-.45-.29-.96-.29-1.55s.13-1.16,.38-1.68c.25-.52,.6-.97,1.05-1.35,.45-.38,.97-.68,1.58-.89,.61-.21,1.28-.32,2.01-.32,.96,0,1.84,.18,2.66,.55,.81,.37,1.5,.84,2.07,1.43l-1.1,1.32c-.49-.47-1.03-.84-1.62-1.11-.59-.27-1.26-.4-2.01-.4-.89,0-1.61,.21-2.16,.62-.54,.41-.82,.99-.82,1.72,0,.39,.08,.72,.23,.99,.15,.27,.36,.5,.62,.71,.26,.2,.54,.38,.85,.54,.31,.15,.63,.3,.95,.43l2.27,.97c.45,.2,.89,.42,1.29,.67,.41,.25,.76,.54,1.05,.88s.52,.72,.69,1.17c.17,.45,.26,.96,.26,1.55,0,.63-.13,1.23-.38,1.78-.25,.55-.61,1.04-1.08,1.45-.47,.41-1.04,.74-1.71,.97-.67,.24-1.42,.35-2.27,.35-1.12,0-2.16-.21-3.12-.63-.96-.42-1.79-1-2.49-1.73l1.22-1.41Z"/><path d="M33.79,113.55c0-.47,.14-.85,.43-1.13,.28-.28,.63-.43,1.04-.43s.73,.14,1.01,.43c.28,.28,.43,.66,.43,1.13,0,.44-.14,.8-.43,1.08-.28,.28-.62,.43-1.01,.43s-.75-.14-1.04-.43c-.28-.28-.43-.65-.43-1.08Z"/><path d="M45.34,98.79h4c2.47,0,4.34,.68,5.63,2.05,1.28,1.36,1.92,3.32,1.92,5.87,0,1.27-.16,2.4-.49,3.4-.33,1-.8,1.84-1.44,2.53-.63,.69-1.41,1.22-2.34,1.58-.93,.37-1.99,.55-3.19,.55h-4.09v-15.98Zm3.85,14.33c1.87,0,3.27-.56,4.2-1.68,.93-1.12,1.4-2.7,1.4-4.73s-.47-3.58-1.4-4.65c-.93-1.07-2.34-1.61-4.2-1.61h-1.83v12.67h1.83Z"/><path d="M60.3,98.79h9.21v1.71h-7.19v5.02h6.07v1.73h-6.07v5.8h7.43v1.73h-9.45v-15.98Z"/><path d="M73.12,98.79h4.9c.88,0,1.68,.08,2.41,.24,.73,.16,1.35,.43,1.86,.79,.51,.37,.91,.85,1.19,1.45,.28,.6,.43,1.34,.43,2.22s-.14,1.58-.43,2.19c-.28,.62-.69,1.13-1.21,1.54-.52,.41-1.14,.71-1.86,.91-.72,.2-1.52,.3-2.4,.3h-2.87v6.33h-2.02v-15.98Zm4.65,7.99c1.4,0,2.43-.26,3.11-.79s1.01-1.36,1.01-2.5-.34-1.95-1.02-2.4-1.71-.67-3.09-.67h-2.63v6.36h2.63Z"/><path d="M93.22,109.9h-5.82l-1.54,4.87h-2.07l5.41-15.98h2.29l5.41,15.98h-2.17l-1.51-4.87Zm-.51-1.63l-.76-2.44c-.29-.89-.57-1.78-.83-2.67-.26-.89-.52-1.79-.78-2.72h-.1c-.24,.93-.5,1.83-.76,2.72-.26,.89-.54,1.77-.83,2.67l-.76,2.44h4.8Z"/><path d="M107.91,114.77l-3.85-6.75h-2.9v6.75h-2.02v-15.98h4.99c.81,0,1.56,.08,2.25,.23,.69,.15,1.28,.41,1.78,.77,.5,.36,.88,.82,1.16,1.39,.28,.57,.41,1.27,.41,2.1,0,1.25-.32,2.25-.97,3-.65,.75-1.52,1.26-2.61,1.54l4.04,6.97h-2.29Zm-6.75-8.41h2.68c1.25,0,2.21-.26,2.88-.77,.67-.51,1-1.29,1-2.33s-.33-1.79-1-2.22c-.67-.42-1.62-.63-2.88-.63h-2.68v5.94Z"/><path d="M116.09,100.5h-4.82v-1.71h11.69v1.71h-4.82v14.28h-2.05v-14.28Z"/><path d="M125.82,98.79h2.39l3.09,8.58,1.17,3.26h.1l1.12-3.26,3.07-8.58h2.39v15.98h-1.92v-8.8c0-.71,.03-1.5,.08-2.36,.06-.86,.12-1.65,.18-2.36h-.1l-1.29,3.56-3.07,8.36h-1.14l-3.09-8.36-1.27-3.56h-.1c.05,.71,.11,1.5,.17,2.36,.06,.86,.1,1.65,.1,2.36v8.8h-1.88v-15.98Z"/><path d="M143.5,98.79h9.21v1.71h-7.19v5.02h6.07v1.73h-6.07v5.8h7.43v1.73h-9.45v-15.98Z"/><path d="M156.32,98.79h2.1l5.77,10.04,1.73,3.31h.1c-.05-.81-.1-1.65-.16-2.52-.06-.87-.08-1.73-.08-2.57v-8.26h1.92v15.98h-2.1l-5.8-10.06-1.73-3.29h-.1c.06,.81,.13,1.64,.18,2.47,.06,.84,.08,1.68,.08,2.52v8.36h-1.92v-15.98Z"/><path d="M175.37,100.5h-4.82v-1.71h11.69v1.71h-4.82v14.28h-2.05v-14.28Z"/><path d="M195.89,115.07c-1.01,0-1.93-.2-2.77-.58-.84-.39-1.56-.95-2.16-1.67s-1.07-1.6-1.4-2.63c-.33-1.03-.5-2.19-.5-3.47s.17-2.43,.5-3.45,.8-1.88,1.4-2.58c.6-.71,1.32-1.25,2.16-1.62,.84-.37,1.76-.56,2.77-.56s1.93,.19,2.77,.57c.84,.38,1.56,.93,2.17,1.63,.61,.71,1.08,1.57,1.41,2.58,.33,1.02,.5,2.16,.5,3.42s-.17,2.44-.5,3.47c-.33,1.03-.8,1.91-1.41,2.63s-1.33,1.28-2.17,1.67c-.84,.39-1.76,.58-2.77,.58Zm0-1.78c.71,0,1.36-.15,1.94-.46s1.07-.75,1.49-1.33c.41-.58,.73-1.27,.96-2.07,.23-.8,.34-1.71,.34-2.72s-.11-1.88-.34-2.68c-.23-.8-.55-1.47-.96-2.02-.41-.55-.91-.98-1.49-1.28-.58-.3-1.22-.45-1.94-.45s-1.36,.15-1.94,.45c-.58,.3-1.07,.73-1.49,1.28-.41,.55-.73,1.23-.96,2.02-.23,.8-.34,1.69-.34,2.68s.11,1.91,.34,2.72c.23,.8,.55,1.49,.96,2.07,.41,.58,.91,1.02,1.49,1.33,.58,.31,1.22,.46,1.94,.46Z"/><path d="M206.14,98.79h9.21v1.71h-7.19v5.41h6.09v1.71h-6.09v7.16h-2.02v-15.98Z"/><path d="M230.36,109.9h-5.82l-1.54,4.87h-2.07l5.41-15.98h2.29l5.41,15.98h-2.17l-1.51-4.87Zm-.51-1.63l-.76-2.44c-.29-.89-.57-1.78-.83-2.67-.26-.89-.52-1.79-.78-2.72h-.1c-.24,.93-.5,1.83-.76,2.72-.26,.89-.54,1.77-.83,2.67l-.76,2.44h4.8Z"/><path d="M235.11,106.78c0-1.28,.18-2.44,.55-3.46,.37-1.02,.88-1.89,1.54-2.61,.66-.71,1.43-1.26,2.33-1.64,.89-.38,1.88-.57,2.95-.57s2.03,.21,2.77,.62c.74,.41,1.34,.86,1.82,1.35l-1.14,1.29c-.41-.42-.87-.77-1.4-1.06-.53-.28-1.2-.43-2.01-.43s-1.54,.15-2.19,.45c-.65,.3-1.2,.73-1.66,1.29-.45,.56-.81,1.24-1.06,2.03-.25,.8-.38,1.69-.38,2.68s.12,1.91,.35,2.72c.24,.8,.58,1.49,1.02,2.06,.45,.57,1,1.01,1.66,1.32s1.42,.46,2.28,.46c.57,0,1.11-.09,1.62-.26,.51-.17,.93-.4,1.25-.69v-4.17h-3.39v-1.68h5.24v6.72c-.52,.54-1.21,.98-2.06,1.33-.85,.35-1.82,.52-2.89,.52s-2.02-.19-2.9-.56c-.88-.37-1.63-.91-2.27-1.62-.63-.71-1.13-1.58-1.49-2.61-.36-1.03-.54-2.2-.54-3.5Z"/><path d="M259.82,114.77l-3.85-6.75h-2.9v6.75h-2.02v-15.98h4.99c.81,0,1.56,.08,2.25,.23,.69,.15,1.28,.41,1.78,.77,.5,.36,.88,.82,1.16,1.39,.28,.57,.41,1.27,.41,2.1,0,1.25-.32,2.25-.97,3s-1.52,1.26-2.61,1.54l4.04,6.97h-2.29Zm-6.75-8.41h2.68c1.25,0,2.21-.26,2.87-.77,.67-.51,1-1.29,1-2.33s-.33-1.79-1-2.22c-.67-.42-1.62-.63-2.87-.63h-2.68v5.94Z"/><path d="M265.18,98.79h2.02v15.98h-2.02v-15.98Z"/><path d="M270.63,106.78c0-1.28,.18-2.44,.54-3.46,.36-1.02,.85-1.89,1.49-2.61,.63-.71,1.38-1.26,2.25-1.64,.87-.38,1.82-.57,2.84-.57s1.83,.2,2.56,.6c.73,.4,1.33,.86,1.8,1.38l-1.14,1.29c-.42-.45-.89-.82-1.4-1.08-.51-.27-1.11-.4-1.79-.4-.76,0-1.45,.15-2.07,.45-.62,.3-1.14,.73-1.58,1.29-.44,.56-.78,1.24-1.02,2.03-.24,.8-.37,1.69-.37,2.68s.12,1.91,.35,2.72c.24,.8,.56,1.49,.99,2.06,.42,.57,.94,1.01,1.55,1.32s1.3,.46,2.06,.46,1.46-.15,2.03-.46c.58-.31,1.12-.75,1.64-1.32l1.15,1.24c-.63,.73-1.35,1.3-2.14,1.71-.8,.41-1.71,.61-2.73,.61s-1.94-.19-2.79-.56c-.85-.37-1.59-.91-2.22-1.62-.63-.71-1.11-1.58-1.46-2.61-.35-1.03-.52-2.2-.52-3.5Z"/><path d="M285.03,98.79h2.02v9.43c0,.96,.1,1.76,.29,2.41,.2,.65,.46,1.17,.79,1.56,.33,.39,.73,.67,1.18,.84,.45,.17,.94,.26,1.46,.26s1.03-.09,1.49-.26c.45-.17,.85-.45,1.19-.84,.34-.39,.61-.91,.8-1.56,.2-.65,.29-1.45,.29-2.41v-9.43h1.95v9.38c0,1.28-.15,2.36-.44,3.24s-.69,1.59-1.21,2.13c-.51,.54-1.12,.93-1.82,1.17-.7,.24-1.45,.35-2.27,.35s-1.57-.12-2.28-.35c-.71-.24-1.32-.62-1.83-1.17-.51-.54-.91-1.25-1.21-2.13s-.44-1.96-.44-3.24v-9.38Z"/><path d="M300.8,98.79h2.02v14.25h6.99v1.73h-9.01v-15.98Z"/><path d="M313,100.5h-4.82v-1.71h11.69v1.71h-4.82v14.28h-2.05v-14.28Z"/><path d="M322.65,98.79h2.02v9.43c0,.96,.1,1.76,.29,2.41,.2,.65,.46,1.17,.79,1.56,.33,.39,.73,.67,1.18,.84,.45,.17,.94,.26,1.46,.26s1.03-.09,1.49-.26c.45-.17,.85-.45,1.19-.84,.34-.39,.61-.91,.8-1.56,.2-.65,.29-1.45,.29-2.41v-9.43h1.95v9.38c0,1.28-.15,2.36-.44,3.24-.29,.88-.69,1.59-1.21,2.13-.51,.54-1.12,.93-1.82,1.17-.7,.24-1.45,.35-2.27,.35s-1.57-.12-2.28-.35c-.71-.24-1.32-.62-1.83-1.17-.51-.54-.91-1.25-1.21-2.13s-.44-1.96-.44-3.24v-9.38Z"/><path d="M347.19,114.77l-3.85-6.75h-2.9v6.75h-2.02v-15.98h4.99c.81,0,1.56,.08,2.25,.23,.69,.15,1.28,.41,1.78,.77,.5,.36,.88,.82,1.16,1.39,.28,.57,.41,1.27,.41,2.1,0,1.25-.32,2.25-.97,3-.65,.75-1.52,1.26-2.61,1.54l4.04,6.97h-2.29Zm-6.75-8.41h2.68c1.25,0,2.21-.26,2.87-.77,.67-.51,1-1.29,1-2.33s-.33-1.79-1-2.22c-.67-.42-1.62-.63-2.87-.63h-2.68v5.94Z"/><path d="M352.55,98.79h9.21v1.71h-7.19v5.02h6.07v1.73h-6.07v5.8h7.43v1.73h-9.45v-15.98Z"/></g></g></g></g></svg>